<svg xmlns="http://www.w3.org/2000/svg" viewBox="0 0 800 260" width="800" height="260" shape-rendering="crispEdges" xmlns:c2pa="http://c2pa.org/manifest"><metadata><c2pa:manifest>AAAWgmp1bWIAAAAeanVtZGMycGEAEQAQgAAAqgA4m3EDYzJwYQAAABZcanVtYgAAAEdqdW1kYzJtYQARABCAAACqADibcQN1cm46YzJwYTplNjc2OGI2NC1mZDlmLTQ2NTUtYTE0NC1lZDA5NDAxOGNjN2UAAAADl2p1bWIAAAApanVtZGMyYXMAEQAQgAAAqgA4m3EDYzJwYS5hc3NlcnRpb25zAAAAALxqdW1iAAAARGp1bWRjYm9yABEAEIAAAKoAOJtxE2MycGEuaW5ncmVkaWVudC52MwAAAAAYYzJzaEAaNvQx3P9jZaEhX3nZaiQAAABwY2JvcqNpZGM6Zm9ybWF0bWltYWdlL3N2Zyt4bWxqaW5zdGFuY2VJRHgseG1wOmlpZDozMjllMDQ0Yy02OTQ5LTQyMWYtYmU2NS0wNmMxN2IyNjE1NDFscmVsYXRpb25zaGlwaHBhcmVudE9mAAAB4mp1bWIAAABBanVtZGNib3IAEQAQgAAAqgA4m3ETYzJwYS5hY3Rpb25zLnYyAAAAABhjMnNo4kwN5KWiRdSAngb73PlVGgAAAZljYm9yomdhY3Rpb25zgqJmYWN0aW9ua2MycGEub3BlbmVkanBhcmFtZXRlcnOha2luZ3JlZGllbnRzgaJjdXJseC1zZWxmI2p1bWJmPWMycGEuYXNzZXJ0aW9ucy9jMnBhLmluZ3JlZGllbnQudjNkaGFzaFggdaFE9TcJmpaQrceC2dbxlI6dztoZzBJHBlt/u/XJcvKkZmFjdGlvbngdY29tLmFudGhyb3BpYy5jbGF1ZGUucHJvdmlkZWRqcGFyYW1ldGVyc6F4H2NvbS5hbnRocm9waWMub3JpZ2luLWNvbmZpZGVuY2VndW5rbm93bmtkZXNjcmlwdGlvbnhmQ2xhdWRlIHByb3ZpZGVkIHRoaXMgZmlsZSBhdCB0aGUgcmVxdWVzdCBvZiBhIHVzZXIgYW5kIG1heSBoYXZlIGNyZWF0ZWQgb3IgbW9kaWZpZWQgdGhlIGZpbGUgY29udGVudHMubXNvZnR3YXJlQWdlbnShZG5hbWVmQ2xhdWRlcmFsbEFjdGlvbnNJbmNsdWRlZPUAAADIanVtYgAAAEBqdW1kY2JvcgARABCAAACqADibcRNjMnBhLmhhc2guZGF0YQAAAAAYYzJzaPOs7QadY9Mb48dhlPwfLV4AAACAY2JvcqVjYWxnZnNoYTI1NmNwYWRNAAAAAAAAAAAAAAAAAGRoYXNoWCDhk/lelKY3sSnLDJH0g7DR1tDxrz7T7nt9hkspj/rm9WRuYW1lbmp1bWJmIG1hbmlmZXN0amV4Y2x1c2lvbnOBomVzdGFydBizZmxlbmd0aBkeBAAAAj5qdW1iAAAAJ2p1bWRjMmNsABEAEIAAAKoAOJtxA2MycGEuY2xhaW0udjIAAAACD2Nib3KlY2FsZ2ZzaGEyNTZpc2lnbmF0dXJleE1zZWxmI2p1bWJmPS9jMnBhL3VybjpjMnBhOmU2NzY4YjY0LWZkOWYtNDY1NS1hMTQ0LWVkMDk0MDE4Y2M3ZS9jMnBhLnNpZ25hdHVyZWppbnN0YW5jZUlEeCx4bXA6aWlkOjhhYzVhMjIzLWE5MGItNGI5OS05YWZiLTZkYWJkYTU0ZWRlNnJjcmVhdGVkX2Fzc2VydGlvbnODomN1cmx4LXNlbGYjanVtYmY9YzJwYS5hc3NlcnRpb25zL2MycGEuaW5ncmVkaWVudC52M2RoYXNoWCB1oUT1NwmalpCtx4LZ1vGUjp3O2hnMEkcGW3+79cly8qJjdXJseCpzZWxmI2p1bWJmPWMycGEuYXNzZXJ0aW9ucy9jMnBhLmFjdGlvbnMudjJkaGFzaFggPBnsFWb6wu7RHhU5w7jC8ynNqhVXRI9DUalV+AF029WiY3VybHgpc2VsZiNqdW1iZj1jMnBhLmFzc2VydGlvbnMvYzJwYS5oYXNoLmRhdGFkaGFzaFggUvy553sWyT8LX2X/Y79gvkCO92VVXeWvAjbK9uYYbl50Y2xhaW1fZ2VuZXJhdG9yX2luZm+jZG5hbWVvQW50aHJvcGljIEZpbGVzZ3ZlcnNpb25lMS4wLjBrc3BlY1ZlcnNpb25lMi40LjAAABA4anVtYgAAAChqdW1kYzJjcwARABCAAACqADibcQNjMnBhLnNpZ25hdHVyZQAAABAIY2JvctKEWQISogEmGCFZAgowggIGMIIBjaADAgECAhRA5aAK7sI50L64g/oGQgU9Z1UTADAKBggqhkjOPQQDAzBJMRcwFQYDVQQKEw5BbnRocm9waWMsIFBCQzEuMCwGA1UEAxMlQW50aHJvcGljIENvbnRlbnQgQ3JlZGVudGlhbHMgUm9vdCBDQTAeFw0yNjA4MDcxODQzNTZaFw0yODA4MDYxOTQzNTZaMEQxFzAVBgNVBAoTDkFudGhyb3BpYywgUEJDMSkwJwYDVQQDEyBBbnRocm9waWMgQ2xhdWRlIENvbnRlbnQgU2lnbmluZzBZMBMGByqGSM49AgEGCCqGSM49AwEHA0IABJh6CmvLUBgFFNU0vUKlOVtE6djd17L5SuwX0LemFisBM3dkd/3cyjxFA3Qo5S46fX0/ihY0VZ7mfb9KF703t5OjWDBWMA4GA1UdDwEB/wQEAwIHgDAVBgNVHSUEDjAMBgorBgEEAYPoXgIBMAwGA1UdEwEB/wQCMAAwHwYDVR0jBBgwFoAUzlHiBIFOZFsj+OPEz5o+nMHXXMIwCgYIKoZIzj0EAwMDZwAwZAIwMXMdFJ4BetLLVY7ORuE9noqbbAZOZn/aArXyTwFAZfKrPzxF2vPoJNf1+UCdg1XGAjBwX1zd9WGqYkqmL5SFqw1QySjr1zJfpJM9+1rdDwSPLMOPOjKuiXjoU/pUUeG9RwmhY3BhZFkNngAAAAAAAAAAAAAAAAAAAAAAAAAAAAAAAAAAAAAAAAAAAAAAAAAAAAAAAAAAAAAAAAAAAAAAAAAAAAAAAAAAAAAAAAAAAAAAAAAAAAAAAAAAAAAAAAAAAAAAAAAAAAAAAAAAAAAAAAAAAAAAAAAAAAAAAAAAAAAAAAAAAAAAAAAAAAAAAAAAAAAAAAAAAAAAAAAAAAAAAAAAAAAAAAAAAAAAAAAAAAAAAAAAAAAAAAAAAAAAAAAAAAAAAAAAAAAAAAAAAAAAAAAAAAAAAAAAAAAAAAAAAAAAAAAAAAAAAAAAAAAAAAAAAAAAAAAAAAAAAAAAAAAAAAAAAAAAAAAAAAAAAAAAAAAAAAAAAAAAAAAAAAAAAAAAAAAAAAAAAAAAAAAAAAAAAAAAAAAAAAAAAAAAAAAAAAAAAAAAAAAAAAAAAAAAAAAAAAAAAAAAAAAAAAAAAAAAAAAAAAAAAAAAAAAAAAAAAAAAAAAAAAAAAAAAAAAAAAAAAAAAAAAAAAAAAAAAAAAAAAAAAAAAAAAAAAAAAAAAAAAAAAAAAAAAAAAAAAAAAAAAAAAAAAAAAAAAAAAAAAAAAAAAAAAAAAAAAAAAAAAAAAAAAAAAAAAAAAAAAAAAAAAAAAAAAAAAAAAAAAAAAAAAAAAAAAAAAAAAAAAAAAAAAAAAAAAAAAAAAAAAAAAAAAAAAAAAAAAAAAAAAAAAAAAAAAAAAAAAAAAAAAAAAAAAAAAAAAAAAAAAAAAAAAAAAAAAAAAAAAAAAAAAAAAAAAAAAAAAAAAAAAAAAAAAAAAAAAAAAAAAAAAAAAAAAAAAAAAAAAAAAAAAAAAAAAAAAAAAAAAAAAAAAAAAAAAAAAAAAAAAAAAAAAAAAAAAAAAAAAAAAAAAAAAAAAAAAAAAAAAAAAAAAAAAAAAAAAAAAAAAAAAAAAAAAAAAAAAAAAAAAAAAAAAAAAAAAAAAAAAAAAAAAAAAAAAAAAAAAAAAAAAAAAAAAAAAAAAAAAAAAAAAAAAAAAAAAAAAAAAAAAAAAAAAAAAAAAAAAAAAAAAAAAAAAAAAAAAAAAAAAAAAAAAAAAAAAAAAAAAAAAAAAAAAAAAAAAAAAAAAAAAAAAAAAAAAAAAAAAAAAAAAAAAAAAAAAAAAAAAAAAAAAAAAAAAAAAAAAAAAAAAAAAAAAAAAAAAAAAAAAAAAAAAAAAAAAAAAAAAAAAAAAAAAAAAAAAAAAAAAAAAAAAAAAAAAAAAAAAAAAAAAAAAAAAAAAAAAAAAAAAAAAAAAAAAAAAAAAAAAAAAAAAAAAAAAAAAAAAAAAAAAAAAAAAAAAAAAAAAAAAAAAAAAAAAAAAAAAAAAAAAAAAAAAAAAAAAAAAAAAAAAAAAAAAAAAAAAAAAAAAAAAAAAAAAAAAAAAAAAAAAAAAAAAAAAAAAAAAAAAAAAAAAAAAAAAAAAAAAAAAAAAAAAAAAAAAAAAAAAAAAAAAAAAAAAAAAAAAAAAAAAAAAAAAAAAAAAAAAAAAAAAAAAAAAAAAAAAAAAAAAAAAAAAAAAAAAAAAAAAAAAAAAAAAAAAAAAAAAAAAAAAAAAAAAAAAAAAAAAAAAAAAAAAAAAAAAAAAAAAAAAAAAAAAAAAAAAAAAAAAAAAAAAAAAAAAAAAAAAAAAAAAAAAAAAAAAAAAAAAAAAAAAAAAAAAAAAAAAAAAAAAAAAAAAAAAAAAAAAAAAAAAAAAAAAAAAAAAAAAAAAAAAAAAAAAAAAAAAAAAAAAAAAAAAAAAAAAAAAAAAAAAAAAAAAAAAAAAAAAAAAAAAAAAAAAAAAAAAAAAAAAAAAAAAAAAAAAAAAAAAAAAAAAAAAAAAAAAAAAAAAAAAAAAAAAAAAAAAAAAAAAAAAAAAAAAAAAAAAAAAAAAAAAAAAAAAAAAAAAAAAAAAAAAAAAAAAAAAAAAAAAAAAAAAAAAAAAAAAAAAAAAAAAAAAAAAAAAAAAAAAAAAAAAAAAAAAAAAAAAAAAAAAAAAAAAAAAAAAAAAAAAAAAAAAAAAAAAAAAAAAAAAAAAAAAAAAAAAAAAAAAAAAAAAAAAAAAAAAAAAAAAAAAAAAAAAAAAAAAAAAAAAAAAAAAAAAAAAAAAAAAAAAAAAAAAAAAAAAAAAAAAAAAAAAAAAAAAAAAAAAAAAAAAAAAAAAAAAAAAAAAAAAAAAAAAAAAAAAAAAAAAAAAAAAAAAAAAAAAAAAAAAAAAAAAAAAAAAAAAAAAAAAAAAAAAAAAAAAAAAAAAAAAAAAAAAAAAAAAAAAAAAAAAAAAAAAAAAAAAAAAAAAAAAAAAAAAAAAAAAAAAAAAAAAAAAAAAAAAAAAAAAAAAAAAAAAAAAAAAAAAAAAAAAAAAAAAAAAAAAAAAAAAAAAAAAAAAAAAAAAAAAAAAAAAAAAAAAAAAAAAAAAAAAAAAAAAAAAAAAAAAAAAAAAAAAAAAAAAAAAAAAAAAAAAAAAAAAAAAAAAAAAAAAAAAAAAAAAAAAAAAAAAAAAAAAAAAAAAAAAAAAAAAAAAAAAAAAAAAAAAAAAAAAAAAAAAAAAAAAAAAAAAAAAAAAAAAAAAAAAAAAAAAAAAAAAAAAAAAAAAAAAAAAAAAAAAAAAAAAAAAAAAAAAAAAAAAAAAAAAAAAAAAAAAAAAAAAAAAAAAAAAAAAAAAAAAAAAAAAAAAAAAAAAAAAAAAAAAAAAAAAAAAAAAAAAAAAAAAAAAAAAAAAAAAAAAAAAAAAAAAAAAAAAAAAAAAAAAAAAAAAAAAAAAAAAAAAAAAAAAAAAAAAAAAAAAAAAAAAAAAAAAAAAAAAAAAAAAAAAAAAAAAAAAAAAAAAAAAAAAAAAAAAAAAAAAAAAAAAAAAAAAAAAAAAAAAAAAAAAAAAAAAAAAAAAAAAAAAAAAAAAAAAAAAAAAAAAAAAAAAAAAAAAAAAAAAAAAAAAAAAAAAAAAAAAAAAAAAAAAAAAAAAAAAAAAAAAAAAAAAAAAAAAAAAAAAAAAAAAAAAAAAAAAAAAAAAAAAAAAAAAAAAAAAAAAAAAAAAAAAAAAAAAAAAAAAAAAAAAAAAAAAAAAAAAAAAAAAAAAAAAAAAAAAAAAAAAAAAAAAAAAAAAAAAAAAAAAAAAAAAAAAAAAAAAAAAAAAAAAAAAAAAAAAAAAAAAAAAAAAAAAAAAAAAAAAAAAAAAAAAAAAAAAAAAAAAAAAAAAAAAAAAAAAAAAAAAAAAAAAAAAAAAAAAAAAAAAAAAAAAAAAAAAAAAAAAAAAAAAAAAAAAAAAAAAAAAAAAAAAAAAAAAAAAAAAAAAAAAAAAAAAAAAAAAAAAAAAAAAAAAAAAAAAAAAAAAAAAAAAAAAAAAAAAAAAAAAAAAAAAAAAAAAAAAAAAAAAAAAAAAAAAAAAAAAAAAAAAAAAAAAAAAAAAAAAAAAAAAAAAAAAAAAAAAAAAAAAAAAAAAAAAAAAAAAAAAAAAAAAAAAAAAAAAAAAAAAAAAAAAAAAAAAAAAAAAAAAAAAAAAAAAAAAAAAAAAAAAAAAAAAAAAAAAAAAAAAAAAAAAAAAAAAAAAAAAAAAAAAAAAAAAAAAAAAAAAAAAAAAAAAAAAAAAAAAAAAAAAAAAAAAAAAAAAAAAAAAAAAAAAAAAAAAAAAAAAAAAAAAAAAAAAAAAAAAAAAAAAAAAAAAAAAAAAAAAAAAAAAAAAAAAAAAAAAAAAAAAAAAAAAAAAAAAAAAAAAAAAAAAAAAAAAAAAAAAAAAAAAAAAAAAAAAAAAAAAAAAAAAAAAAAAAAAAAAAAAAAAAAAAAAAAAAAAAAAAAAAAAAAAAAAAAAAAAAAAAAAAAAAAAAAAAAAAAAAAAAAAAAAAAAAAAAAAAAAAAAAAAAAAAAAAAAAAAAAAAAAAAAAAAAAAAAAAAAAAAAAAAAAAAAAAAAAAAAAAAAAAAAAAAAAAAAAAAAAAAAAAAAAAAAAAAAAAAAAAAAAAAAAAAAAAAAAAAAAAAAAAAAAAAAAAAAAAAAAAAAAAAAAAAAAAAAAAAAAAAAAAAAAAAAAAAAAAAAAAAAAAAAAAAAAAAAAAAAAAAAAAAAAAAAAAAAAAAAAAAAAAAAAAAAAAAAAAAAAAAAAAAAAAAAAAAAAAAAAAAAAAAAAAAAAAAAAAAAAAAAAAAAAAAAAAAAAAAAAAAAAAAAAAAAAAAAAAAAAAAAAAAAAAAAAAAAAAAAAAAAAAAAAAAAAAAAAAAAAAAAAAAAAAAAAAAAAAAAAAAAAAAAAAAAAAAAAAAAAAAAAAAAAAAAAAAAAAAAAAAAAAAAAAAAAAAAAAAAAAAAAAAAAAAAAAAAAAAAAAAAAAAAAAAAAAAAAAAAAAAAAAAAAAAAAAAAAAAAAAAAAAAAAAAAAAAAAAAAAAAAAAAAAAAAAAAAAAAAAAAAAAAAAAAAAAAAAAAAAAAAAAAAAAAAAAAAAAAAAAAAAAAAAAAAAAAAAAAAAAAAAAAAAAAAAAAAAAAAAAAAAAAAAAAAAAAAAAAAAAAAAAAAAAAAAAAAAAAAAAAAAAAAAAAAAAAAAAAAAAAAAAAAAAAAAAAAAAAAAAAAAAAAAAAAAAAAAAAAAAAAAAAAAAAAAAAAAAAAAAAAAAAAAAAAAAAAAAAAAAAAAAAAAAAAAAAAAAAAAAAAAAAAAAAAAAAAAAAAAAAAAAAPZYQHons5OqWW/Zw5fpaAcsVcNTTdBEl61WrdJhS+U9zcELsc4UpBCRELCd+qKs9Vd6Ac6MnYXP/ajqHOkjcW1yo0U=</c2pa:manifest></metadata><defs><linearGradient id="sky" x1="0" y1="0" x2="0" y2="1"><stop offset="0" stop-color="#05001a"/><stop offset=".6" stop-color="#1b0b4f"/><stop offset="1" stop-color="#3b0ca3"/></linearGradient></defs>
<style>
.tw{animation:tw 2s steps(1) infinite}
@keyframes tw{0%,60%{opacity:1}61%,100%{opacity:.15}}
.l{fill:#00f7ff;animation:bob 1.6s steps(1) infinite,col 4s linear infinite}
@keyframes bob{0%,49%{transform:translateY(0)}50%,100%{transform:translateY(-8px)}}
@keyframes col{0%{fill:#00f7ff}33%{fill:#b57bff}66%{fill:#ff79c6}100%{fill:#00f7ff}}
.cur{animation:cur 1s steps(1) infinite}
@keyframes cur{0%,49%{opacity:1}50%,100%{opacity:0}}
.win{animation:win 3s steps(1) infinite}
@keyframes win{0%,70%{opacity:1}71%,100%{opacity:.1}}
.moon{animation:moon 6s ease-in-out infinite}
@keyframes moon{0%,100%{transform:translateY(0)}50%{transform:translateY(-4px)}}
</style><rect width="800" height="260" fill="url(#sky)"/><rect class="tw" x="460" y="140" width="2" height="2" fill="#8be9fd" style="animation-delay:-1.02s"/><rect class="tw" x="600" y="48" width="2" height="2" fill="#ff79c6" style="animation-delay:-0.95s"/><rect class="tw" x="628" y="44" width="2" height="2" fill="#8be9fd" style="animation-delay:-0.61s"/><rect class="tw" x="92" y="136" width="4" height="4" fill="#ff79c6" style="animation-delay:-0.08s"/><rect class="tw" x="404" y="112" width="4" height="4" fill="#ff79c6" style="animation-delay:-1.23s"/><rect class="tw" x="160" y="156" width="2" height="2" fill="#ff79c6" style="animation-delay:-0.13s"/><rect class="tw" x="36" y="48" width="2" height="2" fill="#ff79c6" style="animation-delay:-0.06s"/><rect class="tw" x="472" y="80" width="2" height="2" fill="#ff79c6" style="animation-delay:-1.68s"/><rect class="tw" x="528" y="56" width="4" height="4" fill="#8be9fd" style="animation-delay:-1.00s"/><rect class="tw" x="676" y="20" width="2" height="2" fill="#ff79c6" style="animation-delay:-0.56s"/><rect class="tw" x="564" y="20" width="4" height="4" fill="#8be9fd" style="animation-delay:-0.63s"/><rect class="tw" x="232" y="128" width="2" height="2" fill="#fff" style="animation-delay:-0.14s"/><rect class="tw" x="784" y="24" width="2" height="2" fill="#fff" style="animation-delay:-1.69s"/><rect class="tw" x="392" y="16" width="2" height="2" fill="#ff79c6" style="animation-delay:-0.00s"/><rect class="tw" x="212" y="12" width="2" height="2" fill="#8be9fd" style="animation-delay:-1.96s"/><rect class="tw" x="404" y="104" width="2" height="2" fill="#ff79c6" style="animation-delay:-1.26s"/><rect class="tw" x="796" y="172" width="2" height="2" fill="#8be9fd" style="animation-delay:-0.17s"/><rect class="tw" x="340" y="0" width="2" height="2" fill="#fff" style="animation-delay:-0.27s"/><rect class="tw" x="720" y="24" width="2" height="2" fill="#fff" style="animation-delay:-0.93s"/><rect class="tw" x="496" y="44" width="4" height="4" fill="#ff79c6" style="animation-delay:-0.38s"/><rect class="tw" x="520" y="48" width="4" height="4" fill="#fff" style="animation-delay:-0.84s"/><rect class="tw" x="392" y="28" width="2" height="2" fill="#8be9fd" style="animation-delay:-1.98s"/><rect class="tw" x="0" y="68" width="4" height="4" fill="#8be9fd" style="animation-delay:-2.00s"/><rect class="tw" x="20" y="52" width="2" height="2" fill="#8be9fd" style="animation-delay:-1.99s"/><rect class="tw" x="616" y="164" width="4" height="4" fill="#fff" style="animation-delay:-0.08s"/><rect class="tw" x="148" y="52" width="2" height="2" fill="#8be9fd" style="animation-delay:-0.02s"/><rect class="tw" x="624" y="84" width="2" height="2" fill="#8be9fd" style="animation-delay:-0.15s"/><rect class="tw" x="92" y="52" width="4" height="4" fill="#ff79c6" style="animation-delay:-0.49s"/><rect class="tw" x="612" y="92" width="2" height="2" fill="#ff79c6" style="animation-delay:-0.91s"/><rect class="tw" x="600" y="120" width="4" height="4" fill="#fff" style="animation-delay:-1.73s"/><rect class="tw" x="184" y="160" width="2" height="2" fill="#8be9fd" style="animation-delay:-1.82s"/><rect class="tw" x="624" y="60" width="4" height="4" fill="#fff" style="animation-delay:-0.32s"/><rect class="tw" x="644" y="140" width="2" height="2" fill="#ff79c6" style="animation-delay:-1.90s"/><rect class="tw" x="492" y="152" width="2" height="2" fill="#8be9fd" style="animation-delay:-0.09s"/><rect class="tw" x="108" y="8" width="4" height="4" fill="#8be9fd" style="animation-delay:-0.48s"/><rect class="tw" x="720" y="100" width="2" height="2" fill="#8be9fd" style="animation-delay:-1.65s"/><rect class="tw" x="608" y="124" width="2" height="2" fill="#ff79c6" style="animation-delay:-0.35s"/><rect class="tw" x="736" y="16" width="2" height="2" fill="#fff" style="animation-delay:-0.96s"/><rect class="tw" x="668" y="156" width="4" height="4" fill="#fff" style="animation-delay:-0.56s"/><rect class="tw" x="208" y="4" width="2" height="2" fill="#8be9fd" style="animation-delay:-0.82s"/><rect class="tw" x="252" y="12" width="2" height="2" fill="#fff" style="animation-delay:-0.56s"/><rect class="tw" x="540" y="144" width="2" height="2" fill="#fff" style="animation-delay:-0.72s"/><rect class="tw" x="460" y="84" width="4" height="4" fill="#ff79c6" style="animation-delay:-1.38s"/><rect class="tw" x="596" y="32" width="4" height="4" fill="#fff" style="animation-delay:-1.85s"/><rect class="tw" x="484" y="88" width="4" height="4" fill="#8be9fd" style="animation-delay:-1.93s"/><g class="moon"><rect x="680" y="48" width="6" height="6" fill="#d6d2ff"/><rect x="686" y="30" width="6" height="6" fill="#d6d2ff"/><rect x="686" y="36" width="6" height="6" fill="#d6d2ff"/><rect x="686" y="42" width="6" height="6" fill="#d6d2ff"/><rect x="686" y="48" width="6" height="6" fill="#d6d2ff"/><rect x="686" y="54" width="6" height="6" fill="#d6d2ff"/><rect x="686" y="60" width="6" height="6" fill="#f8f8f2"/><rect x="686" y="66" width="6" height="6" fill="#f8f8f2"/><rect x="692" y="24" width="6" height="6" fill="#d6d2ff"/><rect x="692" y="30" width="6" height="6" fill="#d6d2ff"/><rect x="692" y="36" width="6" height="6" fill="#d6d2ff"/><rect x="692" y="42" width="6" height="6" fill="#d6d2ff"/><rect x="692" y="48" width="6" height="6" fill="#d6d2ff"/><rect x="692" y="54" width="6" height="6" fill="#f8f8f2"/><rect x="692" y="60" width="6" height="6" fill="#f8f8f2"/><rect x="692" y="66" width="6" height="6" fill="#f8f8f2"/><rect x="692" y="72" width="6" height="6" fill="#f8f8f2"/><rect x="698" y="24" width="6" height="6" fill="#d6d2ff"/><rect x="698" y="30" width="6" height="6" fill="#d6d2ff"/><rect x="698" y="36" width="6" height="6" fill="#d6d2ff"/><rect x="698" y="42" width="6" height="6" fill="#a79be8"/><rect x="698" y="48" width="6" height="6" fill="#f8f8f2"/><rect x="698" y="54" width="6" height="6" fill="#f8f8f2"/><rect x="698" y="60" width="6" height="6" fill="#f8f8f2"/><rect x="698" y="66" width="6" height="6" fill="#f8f8f2"/><rect x="698" y="72" width="6" height="6" fill="#f8f8f2"/><rect x="704" y="24" width="6" height="6" fill="#d6d2ff"/><rect x="704" y="30" width="6" height="6" fill="#d6d2ff"/><rect x="704" y="36" width="6" height="6" fill="#d6d2ff"/><rect x="704" y="42" width="6" height="6" fill="#f8f8f2"/><rect x="704" y="48" width="6" height="6" fill="#f8f8f2"/><rect x="704" y="54" width="6" height="6" fill="#f8f8f2"/><rect x="704" y="60" width="6" height="6" fill="#f8f8f2"/><rect x="704" y="66" width="6" height="6" fill="#f8f8f2"/><rect x="704" y="72" width="6" height="6" fill="#f8f8f2"/><rect x="710" y="18" width="6" height="6" fill="#d6d2ff"/><rect x="710" y="24" width="6" height="6" fill="#d6d2ff"/><rect x="710" y="30" width="6" height="6" fill="#d6d2ff"/><rect x="710" y="36" width="6" height="6" fill="#f8f8f2"/><rect x="710" y="42" width="6" height="6" fill="#f8f8f2"/><rect x="710" y="48" width="6" height="6" fill="#f8f8f2"/><rect x="710" y="54" width="6" height="6" fill="#f8f8f2"/><rect x="710" y="60" width="6" height="6" fill="#a79be8"/><rect x="710" y="66" width="6" height="6" fill="#f8f8f2"/><rect x="710" y="72" width="6" height="6" fill="#f8f8f2"/><rect x="710" y="78" width="6" height="6" fill="#f8f8f2"/><rect x="716" y="24" width="6" height="6" fill="#d6d2ff"/><rect x="716" y="30" width="6" height="6" fill="#f8f8f2"/><rect x="716" y="36" width="6" height="6" fill="#f8f8f2"/><rect x="716" y="42" width="6" height="6" fill="#f8f8f2"/><rect x="716" y="48" width="6" height="6" fill="#a79be8"/><rect x="716" y="54" width="6" height="6" fill="#f8f8f2"/><rect x="716" y="60" width="6" height="6" fill="#f8f8f2"/><rect x="716" y="66" width="6" height="6" fill="#f8f8f2"/><rect x="716" y="72" width="6" height="6" fill="#f8f8f2"/><rect x="722" y="24" width="6" height="6" fill="#f8f8f2"/><rect x="722" y="30" width="6" height="6" fill="#f8f8f2"/><rect x="722" y="36" width="6" height="6" fill="#f8f8f2"/><rect x="722" y="42" width="6" height="6" fill="#f8f8f2"/><rect x="722" y="48" width="6" height="6" fill="#f8f8f2"/><rect x="722" y="54" width="6" height="6" fill="#a79be8"/><rect x="722" y="60" width="6" height="6" fill="#f8f8f2"/><rect x="722" y="66" width="6" height="6" fill="#f8f8f2"/><rect x="722" y="72" width="6" height="6" fill="#f8f8f2"/><rect x="728" y="24" width="6" height="6" fill="#f8f8f2"/><rect x="728" y="30" width="6" height="6" fill="#f8f8f2"/><rect x="728" y="36" width="6" height="6" fill="#f8f8f2"/><rect x="728" y="42" width="6" height="6" fill="#f8f8f2"/><rect x="728" y="48" width="6" height="6" fill="#f8f8f2"/><rect x="728" y="54" width="6" height="6" fill="#f8f8f2"/><rect x="728" y="60" width="6" height="6" fill="#f8f8f2"/><rect x="728" y="66" width="6" height="6" fill="#f8f8f2"/><rect x="728" y="72" width="6" height="6" fill="#f8f8f2"/><rect x="734" y="30" width="6" height="6" fill="#f8f8f2"/><rect x="734" y="36" width="6" height="6" fill="#f8f8f2"/><rect x="734" y="42" width="6" height="6" fill="#f8f8f2"/><rect x="734" y="48" width="6" height="6" fill="#f8f8f2"/><rect x="734" y="54" width="6" height="6" fill="#f8f8f2"/><rect x="734" y="60" width="6" height="6" fill="#f8f8f2"/><rect x="734" y="66" width="6" height="6" fill="#f8f8f2"/><rect x="740" y="48" width="6" height="6" fill="#f8f8f2"/></g><rect x="0" y="220" width="28" height="40" fill="#1a0d4d"/><rect x="14" y="236" width="4" height="4" fill="#ff79c6"/><rect x="32" y="204" width="32" height="56" fill="#1a0d4d"/><rect x="46" y="196" width="4" height="8" fill="#1a0d4d"/><rect x="56" y="240" width="4" height="4" fill="#ffe66d"/><rect x="68" y="196" width="44" height="64" fill="#1a0d4d"/><rect x="82" y="202" width="4" height="4" fill="#ffe66d"/><rect class="win" x="92" y="202" width="4" height="4" fill="#ffe66d" style="animation-delay:-2.10s"/><rect class="win" x="102" y="212" width="4" height="4" fill="#ff79c6" style="animation-delay:-1.84s"/><rect x="112" y="212" width="40" height="48" fill="#1a0d4d"/><rect x="126" y="218" width="4" height="4" fill="#ffe66d"/><rect x="116" y="228" width="4" height="4" fill="#ffe66d"/><rect x="136" y="228" width="4" height="4" fill="#ffe66d"/><rect x="156" y="204" width="40" height="56" fill="#1a0d4d"/><rect x="174" y="196" width="4" height="8" fill="#1a0d4d"/><rect x="160" y="210" width="4" height="4" fill="#ffe66d"/><rect x="170" y="250" width="4" height="4" fill="#ffe66d"/><rect x="196" y="212" width="28" height="48" fill="#1a0d4d"/><rect x="208" y="204" width="4" height="8" fill="#1a0d4d"/><rect x="210" y="218" width="4" height="4" fill="#ffe66d"/><rect class="win" x="210" y="228" width="4" height="4" fill="#00f7ff" style="animation-delay:-1.04s"/><rect x="224" y="220" width="32" height="40" fill="#1a0d4d"/><rect x="248" y="236" width="4" height="4" fill="#ff79c6"/><rect x="260" y="212" width="28" height="48" fill="#1a0d4d"/><rect x="272" y="204" width="4" height="8" fill="#1a0d4d"/><rect x="274" y="218" width="4" height="4" fill="#ff79c6"/><rect x="274" y="248" width="4" height="4" fill="#ffe66d"/><rect x="288" y="196" width="36" height="64" fill="#1a0d4d"/><rect x="292" y="212" width="4" height="4" fill="#ff79c6"/><rect x="324" y="208" width="44" height="52" fill="#1a0d4d"/><rect x="338" y="214" width="4" height="4" fill="#ff79c6"/><rect x="348" y="244" width="4" height="4" fill="#ffe66d"/><rect x="372" y="196" width="28" height="64" fill="#1a0d4d"/><rect x="384" y="188" width="4" height="8" fill="#1a0d4d"/><rect x="376" y="202" width="4" height="4" fill="#ffe66d"/><rect x="386" y="222" width="4" height="4" fill="#ffe66d"/><rect x="386" y="242" width="4" height="4" fill="#ffe66d"/><rect x="400" y="224" width="32" height="36" fill="#1a0d4d"/><rect x="414" y="216" width="4" height="8" fill="#1a0d4d"/><rect x="404" y="230" width="4" height="4" fill="#ffe66d"/><rect x="414" y="240" width="4" height="4" fill="#ffe66d"/><rect x="432" y="200" width="40" height="60" fill="#1a0d4d"/><rect x="456" y="226" width="4" height="4" fill="#ff79c6"/><rect x="472" y="216" width="32" height="44" fill="#1a0d4d"/><rect x="486" y="222" width="4" height="4" fill="#ffe66d"/><rect x="476" y="242" width="4" height="4" fill="#ff79c6"/><rect x="496" y="242" width="4" height="4" fill="#ff79c6"/><rect x="508" y="220" width="32" height="40" fill="#1a0d4d"/><rect class="win" x="512" y="226" width="4" height="4" fill="#ffe66d" style="animation-delay:-0.55s"/><rect class="win" x="532" y="236" width="4" height="4" fill="#ffe66d" style="animation-delay:-2.04s"/><rect x="512" y="246" width="4" height="4" fill="#ffe66d"/><rect x="540" y="204" width="32" height="56" fill="#1a0d4d"/><rect x="554" y="196" width="4" height="8" fill="#1a0d4d"/><rect x="554" y="230" width="4" height="4" fill="#ffe66d"/><rect x="564" y="230" width="4" height="4" fill="#ffe66d"/><rect x="564" y="250" width="4" height="4" fill="#00f7ff"/><rect x="572" y="204" width="32" height="56" fill="#1a0d4d"/><rect x="596" y="220" width="4" height="4" fill="#ff79c6"/><rect x="576" y="230" width="4" height="4" fill="#ff79c6"/><rect x="596" y="230" width="4" height="4" fill="#ff79c6"/><rect x="604" y="220" width="32" height="40" fill="#1a0d4d"/><rect x="618" y="226" width="4" height="4" fill="#ffe66d"/><rect x="618" y="236" width="4" height="4" fill="#00f7ff"/><rect class="win" x="628" y="236" width="4" height="4" fill="#ff79c6" style="animation-delay:-2.72s"/><rect x="640" y="196" width="28" height="64" fill="#1a0d4d"/><rect x="644" y="202" width="4" height="4" fill="#ffe66d"/><rect x="668" y="208" width="44" height="52" fill="#1a0d4d"/><rect x="688" y="200" width="4" height="8" fill="#1a0d4d"/><rect x="692" y="224" width="4" height="4" fill="#00f7ff"/><rect x="692" y="234" width="4" height="4" fill="#ff79c6"/><rect class="win" x="702" y="234" width="4" height="4" fill="#ff79c6" style="animation-delay:-2.72s"/><rect x="716" y="196" width="28" height="64" fill="#1a0d4d"/><rect x="728" y="188" width="4" height="8" fill="#1a0d4d"/><rect x="730" y="212" width="4" height="4" fill="#ffe66d"/><rect class="win" x="730" y="222" width="4" height="4" fill="#00f7ff" style="animation-delay:-1.33s"/><rect x="744" y="216" width="36" height="44" fill="#1a0d4d"/><rect x="768" y="222" width="4" height="4" fill="#ff79c6"/><rect x="784" y="212" width="36" height="48" fill="#1a0d4d"/><rect x="800" y="204" width="4" height="8" fill="#1a0d4d"/><rect class="win" x="798" y="228" width="4" height="4" fill="#ffe66d" style="animation-delay:-0.78s"/><rect class="win" x="808" y="228" width="4" height="4" fill="#ffe66d" style="animation-delay:-1.62s"/><rect x="788" y="238" width="4" height="4" fill="#ffe66d"/><rect x="798" y="238" width="4" height="4" fill="#00f7ff"/><rect x="0" y="220" width="32" height="40" fill="#0d0626"/><rect x="24" y="246" width="4" height="4" fill="#00f7ff"/><rect x="36" y="236" width="36" height="24" fill="#0d0626"/><rect x="72" y="244" width="44" height="16" fill="#0d0626"/><rect x="120" y="236" width="40" height="24" fill="#0d0626"/><rect class="win" x="124" y="242" width="4" height="4" fill="#ff79c6" style="animation-delay:-1.99s"/><rect x="134" y="242" width="4" height="4" fill="#ff79c6"/><rect x="160" y="240" width="36" height="20" fill="#0d0626"/><rect x="176" y="232" width="4" height="8" fill="#0d0626"/><rect x="196" y="228" width="40" height="32" fill="#0d0626"/><rect x="220" y="234" width="4" height="4" fill="#ff79c6"/><rect class="win" x="200" y="244" width="4" height="4" fill="#00f7ff" style="animation-delay:-2.49s"/><rect x="210" y="244" width="4" height="4" fill="#ffe66d"/><rect x="240" y="236" width="44" height="24" fill="#0d0626"/><rect x="274" y="242" width="4" height="4" fill="#ffe66d"/><rect x="284" y="240" width="28" height="20" fill="#0d0626"/><rect x="312" y="244" width="40" height="16" fill="#0d0626"/><rect x="352" y="236" width="28" height="24" fill="#0d0626"/><rect x="364" y="228" width="4" height="8" fill="#0d0626"/><rect class="win" x="366" y="242" width="4" height="4" fill="#ffe66d" style="animation-delay:-0.66s"/><rect x="384" y="220" width="36" height="40" fill="#0d0626"/><rect x="388" y="236" width="4" height="4" fill="#ffe66d"/><rect x="424" y="220" width="36" height="40" fill="#0d0626"/><rect x="440" y="212" width="4" height="8" fill="#0d0626"/><rect x="438" y="226" width="4" height="4" fill="#ffe66d"/><rect x="448" y="246" width="4" height="4" fill="#00f7ff"/><rect x="460" y="236" width="32" height="24" fill="#0d0626"/><rect x="474" y="228" width="4" height="8" fill="#0d0626"/><rect x="474" y="242" width="4" height="4" fill="#ffe66d"/><rect x="492" y="220" width="32" height="40" fill="#0d0626"/><rect x="516" y="226" width="4" height="4" fill="#ffe66d"/><rect class="win" x="496" y="236" width="4" height="4" fill="#ffe66d" style="animation-delay:-1.08s"/><rect x="524" y="240" width="40" height="20" fill="#0d0626"/><rect x="568" y="220" width="40" height="40" fill="#0d0626"/><rect x="586" y="212" width="4" height="8" fill="#0d0626"/><rect class="win" x="572" y="246" width="4" height="4" fill="#ffe66d" style="animation-delay:-0.40s"/><rect x="612" y="220" width="36" height="40" fill="#0d0626"/><rect x="626" y="226" width="4" height="4" fill="#ffe66d"/><rect x="626" y="236" width="4" height="4" fill="#ffe66d"/><rect x="636" y="236" width="4" height="4" fill="#00f7ff"/><rect x="616" y="246" width="4" height="4" fill="#00f7ff"/><rect class="win" x="636" y="246" width="4" height="4" fill="#ffe66d" style="animation-delay:-2.31s"/><rect x="648" y="220" width="32" height="40" fill="#0d0626"/><rect class="win" x="652" y="226" width="4" height="4" fill="#00f7ff" style="animation-delay:-0.81s"/><rect x="672" y="226" width="4" height="4" fill="#ffe66d"/><rect class="win" x="652" y="236" width="4" height="4" fill="#ff79c6" style="animation-delay:-0.56s"/><rect x="662" y="236" width="4" height="4" fill="#ffe66d"/><rect x="652" y="246" width="4" height="4" fill="#ffe66d"/><rect x="662" y="246" width="4" height="4" fill="#ff79c6"/><rect x="684" y="232" width="36" height="28" fill="#0d0626"/><rect x="688" y="238" width="4" height="4" fill="#ffe66d"/><rect x="698" y="238" width="4" height="4" fill="#ffe66d"/><rect class="win" x="698" y="248" width="4" height="4" fill="#ffe66d" style="animation-delay:-1.13s"/><rect x="720" y="228" width="36" height="32" fill="#0d0626"/><rect x="736" y="220" width="4" height="8" fill="#0d0626"/><rect x="744" y="244" width="4" height="4" fill="#ffe66d"/><rect x="760" y="236" width="36" height="24" fill="#0d0626"/><rect class="win" x="774" y="242" width="4" height="4" fill="#00f7ff" style="animation-delay:-2.19s"/><rect x="796" y="232" width="44" height="28" fill="#0d0626"/><rect x="820" y="238" width="4" height="4" fill="#00f7ff"/><rect class="win" x="830" y="238" width="4" height="4" fill="#00f7ff" style="animation-delay:-1.21s"/><rect class="win" x="820" y="248" width="4" height="4" fill="#00f7ff" style="animation-delay:-2.96s"/><rect x="0" y="256" width="800" height="4" fill="#00f7ff" opacity=".85"/><g class="l" style="animation-delay:-0.00s,-0.00s"><g fill="#0a0330" transform="translate(5,5)"><rect x="75" y="62" width="40" height="10"/><rect x="75" y="72" width="10" height="10"/><rect x="115" y="72" width="10" height="10"/><rect x="75" y="82" width="10" height="10"/><rect x="115" y="82" width="10" height="10"/><rect x="75" y="92" width="40" height="10"/><rect x="75" y="102" width="10" height="10"/><rect x="95" y="102" width="10" height="10"/><rect x="75" y="112" width="10" height="10"/><rect x="105" y="112" width="10" height="10"/><rect x="75" y="122" width="10" height="10"/><rect x="115" y="122" width="10" height="10"/></g><rect x="75" y="62" width="40" height="10"/><rect x="75" y="72" width="10" height="10"/><rect x="115" y="72" width="10" height="10"/><rect x="75" y="82" width="10" height="10"/><rect x="115" y="82" width="10" height="10"/><rect x="75" y="92" width="40" height="10"/><rect x="75" y="102" width="10" height="10"/><rect x="95" y="102" width="10" height="10"/><rect x="75" y="112" width="10" height="10"/><rect x="105" y="112" width="10" height="10"/><rect x="75" y="122" width="10" height="10"/><rect x="115" y="122" width="10" height="10"/></g><g class="l" style="animation-delay:-0.14s,-0.35s"><g fill="#0a0330" transform="translate(5,5)"><rect x="145" y="62" width="30" height="10"/><rect x="135" y="72" width="10" height="10"/><rect x="175" y="72" width="10" height="10"/><rect x="135" y="82" width="10" height="10"/><rect x="175" y="82" width="10" height="10"/><rect x="135" y="92" width="50" height="10"/><rect x="135" y="102" width="10" height="10"/><rect x="175" y="102" width="10" height="10"/><rect x="135" y="112" width="10" height="10"/><rect x="175" y="112" width="10" height="10"/><rect x="135" y="122" width="10" height="10"/><rect x="175" y="122" width="10" height="10"/></g><rect x="145" y="62" width="30" height="10"/><rect x="135" y="72" width="10" height="10"/><rect x="175" y="72" width="10" height="10"/><rect x="135" y="82" width="10" height="10"/><rect x="175" y="82" width="10" height="10"/><rect x="135" y="92" width="50" height="10"/><rect x="135" y="102" width="10" height="10"/><rect x="175" y="102" width="10" height="10"/><rect x="135" y="112" width="10" height="10"/><rect x="175" y="112" width="10" height="10"/><rect x="135" y="122" width="10" height="10"/><rect x="175" y="122" width="10" height="10"/></g><g class="l" style="animation-delay:-0.28s,-0.70s"><g fill="#0a0330" transform="translate(5,5)"><rect x="195" y="62" width="10" height="10"/><rect x="235" y="62" width="10" height="10"/><rect x="195" y="72" width="10" height="10"/><rect x="235" y="72" width="10" height="10"/><rect x="195" y="82" width="10" height="10"/><rect x="235" y="82" width="10" height="10"/><rect x="195" y="92" width="50" height="10"/><rect x="195" y="102" width="10" height="10"/><rect x="235" y="102" width="10" height="10"/><rect x="195" y="112" width="10" height="10"/><rect x="235" y="112" width="10" height="10"/><rect x="195" y="122" width="10" height="10"/><rect x="235" y="122" width="10" height="10"/></g><rect x="195" y="62" width="10" height="10"/><rect x="235" y="62" width="10" height="10"/><rect x="195" y="72" width="10" height="10"/><rect x="235" y="72" width="10" height="10"/><rect x="195" y="82" width="10" height="10"/><rect x="235" y="82" width="10" height="10"/><rect x="195" y="92" width="50" height="10"/><rect x="195" y="102" width="10" height="10"/><rect x="235" y="102" width="10" height="10"/><rect x="195" y="112" width="10" height="10"/><rect x="235" y="112" width="10" height="10"/><rect x="195" y="122" width="10" height="10"/><rect x="235" y="122" width="10" height="10"/></g><g class="l" style="animation-delay:-0.42s,-1.05s"><g fill="#0a0330" transform="translate(5,5)"><rect x="255" y="62" width="10" height="10"/><rect x="295" y="62" width="10" height="10"/><rect x="255" y="72" width="10" height="10"/><rect x="295" y="72" width="10" height="10"/><rect x="255" y="82" width="10" height="10"/><rect x="295" y="82" width="10" height="10"/><rect x="255" y="92" width="10" height="10"/><rect x="295" y="92" width="10" height="10"/><rect x="255" y="102" width="10" height="10"/><rect x="295" y="102" width="10" height="10"/><rect x="255" y="112" width="10" height="10"/><rect x="295" y="112" width="10" height="10"/><rect x="265" y="122" width="30" height="10"/></g><rect x="255" y="62" width="10" height="10"/><rect x="295" y="62" width="10" height="10"/><rect x="255" y="72" width="10" height="10"/><rect x="295" y="72" width="10" height="10"/><rect x="255" y="82" width="10" height="10"/><rect x="295" y="82" width="10" height="10"/><rect x="255" y="92" width="10" height="10"/><rect x="295" y="92" width="10" height="10"/><rect x="255" y="102" width="10" height="10"/><rect x="295" y="102" width="10" height="10"/><rect x="255" y="112" width="10" height="10"/><rect x="295" y="112" width="10" height="10"/><rect x="265" y="122" width="30" height="10"/></g><g class="l" style="animation-delay:-0.56s,-1.40s"><g fill="#0a0330" transform="translate(5,5)"><rect x="315" y="62" width="10" height="10"/><rect x="315" y="72" width="10" height="10"/><rect x="315" y="82" width="10" height="10"/><rect x="315" y="92" width="10" height="10"/><rect x="315" y="102" width="10" height="10"/><rect x="315" y="112" width="10" height="10"/><rect x="315" y="122" width="50" height="10"/></g><rect x="315" y="62" width="10" height="10"/><rect x="315" y="72" width="10" height="10"/><rect x="315" y="82" width="10" height="10"/><rect x="315" y="92" width="10" height="10"/><rect x="315" y="102" width="10" height="10"/><rect x="315" y="112" width="10" height="10"/><rect x="315" y="122" width="50" height="10"/></g><g class="l" style="animation-delay:-0.84s,-2.10s"><g fill="#0a0330" transform="translate(5,5)"><rect x="445" y="62" width="40" height="10"/><rect x="435" y="72" width="10" height="10"/><rect x="435" y="82" width="10" height="10"/><rect x="445" y="92" width="30" height="10"/><rect x="475" y="102" width="10" height="10"/><rect x="475" y="112" width="10" height="10"/><rect x="435" y="122" width="40" height="10"/></g><rect x="445" y="62" width="40" height="10"/><rect x="435" y="72" width="10" height="10"/><rect x="435" y="82" width="10" height="10"/><rect x="445" y="92" width="30" height="10"/><rect x="475" y="102" width="10" height="10"/><rect x="475" y="112" width="10" height="10"/><rect x="435" y="122" width="40" height="10"/></g><g class="l" style="animation-delay:-0.98s,-2.45s"><g fill="#0a0330" transform="translate(5,5)"><rect x="495" y="62" width="10" height="10"/><rect x="535" y="62" width="10" height="10"/><rect x="495" y="72" width="10" height="10"/><rect x="535" y="72" width="10" height="10"/><rect x="495" y="82" width="10" height="10"/><rect x="535" y="82" width="10" height="10"/><rect x="495" y="92" width="10" height="10"/><rect x="515" y="92" width="10" height="10"/><rect x="535" y="92" width="10" height="10"/><rect x="495" y="102" width="10" height="10"/><rect x="515" y="102" width="10" height="10"/><rect x="535" y="102" width="10" height="10"/><rect x="495" y="112" width="10" height="10"/><rect x="515" y="112" width="10" height="10"/><rect x="535" y="112" width="10" height="10"/><rect x="505" y="122" width="10" height="10"/><rect x="525" y="122" width="10" height="10"/></g><rect x="495" y="62" width="10" height="10"/><rect x="535" y="62" width="10" height="10"/><rect x="495" y="72" width="10" height="10"/><rect x="535" y="72" width="10" height="10"/><rect x="495" y="82" width="10" height="10"/><rect x="535" y="82" width="10" height="10"/><rect x="495" y="92" width="10" height="10"/><rect x="515" y="92" width="10" height="10"/><rect x="535" y="92" width="10" height="10"/><rect x="495" y="102" width="10" height="10"/><rect x="515" y="102" width="10" height="10"/><rect x="535" y="102" width="10" height="10"/><rect x="495" y="112" width="10" height="10"/><rect x="515" y="112" width="10" height="10"/><rect x="535" y="112" width="10" height="10"/><rect x="505" y="122" width="10" height="10"/><rect x="525" y="122" width="10" height="10"/></g><g class="l" style="animation-delay:-1.12s,-2.80s"><g fill="#0a0330" transform="translate(5,5)"><rect x="565" y="62" width="30" height="10"/><rect x="555" y="72" width="10" height="10"/><rect x="595" y="72" width="10" height="10"/><rect x="555" y="82" width="10" height="10"/><rect x="595" y="82" width="10" height="10"/><rect x="555" y="92" width="50" height="10"/><rect x="555" y="102" width="10" height="10"/><rect x="595" y="102" width="10" height="10"/><rect x="555" y="112" width="10" height="10"/><rect x="595" y="112" width="10" height="10"/><rect x="555" y="122" width="10" height="10"/><rect x="595" y="122" width="10" height="10"/></g><rect x="565" y="62" width="30" height="10"/><rect x="555" y="72" width="10" height="10"/><rect x="595" y="72" width="10" height="10"/><rect x="555" y="82" width="10" height="10"/><rect x="595" y="82" width="10" height="10"/><rect x="555" y="92" width="50" height="10"/><rect x="555" y="102" width="10" height="10"/><rect x="595" y="102" width="10" height="10"/><rect x="555" y="112" width="10" height="10"/><rect x="595" y="112" width="10" height="10"/><rect x="555" y="122" width="10" height="10"/><rect x="595" y="122" width="10" height="10"/></g><g class="l" style="animation-delay:-1.26s,-3.15s"><g fill="#0a0330" transform="translate(5,5)"><rect x="625" y="62" width="30" height="10"/><rect x="635" y="72" width="10" height="10"/><rect x="635" y="82" width="10" height="10"/><rect x="635" y="92" width="10" height="10"/><rect x="635" y="102" width="10" height="10"/><rect x="635" y="112" width="10" height="10"/><rect x="625" y="122" width="30" height="10"/></g><rect x="625" y="62" width="30" height="10"/><rect x="635" y="72" width="10" height="10"/><rect x="635" y="82" width="10" height="10"/><rect x="635" y="92" width="10" height="10"/><rect x="635" y="102" width="10" height="10"/><rect x="635" y="112" width="10" height="10"/><rect x="625" y="122" width="30" height="10"/></g><g class="l" style="animation-delay:-1.40s,-3.50s"><g fill="#0a0330" transform="translate(5,5)"><rect x="675" y="62" width="10" height="10"/><rect x="715" y="62" width="10" height="10"/><rect x="675" y="72" width="20" height="10"/><rect x="715" y="72" width="10" height="10"/><rect x="675" y="82" width="10" height="10"/><rect x="695" y="82" width="10" height="10"/><rect x="715" y="82" width="10" height="10"/><rect x="675" y="92" width="10" height="10"/><rect x="695" y="92" width="10" height="10"/><rect x="715" y="92" width="10" height="10"/><rect x="675" y="102" width="10" height="10"/><rect x="705" y="102" width="20" height="10"/><rect x="675" y="112" width="10" height="10"/><rect x="715" y="112" width="10" height="10"/><rect x="675" y="122" width="10" height="10"/><rect x="715" y="122" width="10" height="10"/></g><rect x="675" y="62" width="10" height="10"/><rect x="715" y="62" width="10" height="10"/><rect x="675" y="72" width="20" height="10"/><rect x="715" y="72" width="10" height="10"/><rect x="675" y="82" width="10" height="10"/><rect x="695" y="82" width="10" height="10"/><rect x="715" y="82" width="10" height="10"/><rect x="675" y="92" width="10" height="10"/><rect x="695" y="92" width="10" height="10"/><rect x="715" y="92" width="10" height="10"/><rect x="675" y="102" width="10" height="10"/><rect x="705" y="102" width="20" height="10"/><rect x="675" y="112" width="10" height="10"/><rect x="715" y="112" width="10" height="10"/><rect x="675" y="122" width="10" height="10"/><rect x="715" y="122" width="10" height="10"/></g><g fill="#8be9fd"><rect x="203" y="158" width="12" height="3"/><rect x="203" y="161" width="3" height="3"/><rect x="215" y="161" width="3" height="3"/><rect x="203" y="164" width="3" height="3"/><rect x="215" y="164" width="3" height="3"/><rect x="203" y="167" width="12" height="3"/><rect x="203" y="170" width="3" height="3"/><rect x="215" y="170" width="3" height="3"/><rect x="203" y="173" width="3" height="3"/><rect x="215" y="173" width="3" height="3"/><rect x="203" y="176" width="12" height="3"/><rect x="221" y="158" width="3" height="3"/><rect x="233" y="158" width="3" height="3"/><rect x="221" y="161" width="3" height="3"/><rect x="233" y="161" width="3" height="3"/><rect x="221" y="164" width="3" height="3"/><rect x="233" y="164" width="3" height="3"/><rect x="221" y="167" width="3" height="3"/><rect x="233" y="167" width="3" height="3"/><rect x="221" y="170" width="3" height="3"/><rect x="233" y="170" width="3" height="3"/><rect x="221" y="173" width="3" height="3"/><rect x="233" y="173" width="3" height="3"/><rect x="224" y="176" width="9" height="3"/><rect x="242" y="158" width="9" height="3"/><rect x="245" y="161" width="3" height="3"/><rect x="245" y="164" width="3" height="3"/><rect x="245" y="167" width="3" height="3"/><rect x="245" y="170" width="3" height="3"/><rect x="245" y="173" width="3" height="3"/><rect x="242" y="176" width="9" height="3"/><rect x="257" y="158" width="3" height="3"/><rect x="257" y="161" width="3" height="3"/><rect x="257" y="164" width="3" height="3"/><rect x="257" y="167" width="3" height="3"/><rect x="257" y="170" width="3" height="3"/><rect x="257" y="173" width="3" height="3"/><rect x="257" y="176" width="15" height="3"/><rect x="275" y="158" width="12" height="3"/><rect x="275" y="161" width="3" height="3"/><rect x="287" y="161" width="3" height="3"/><rect x="275" y="164" width="3" height="3"/><rect x="287" y="164" width="3" height="3"/><rect x="275" y="167" width="3" height="3"/><rect x="287" y="167" width="3" height="3"/><rect x="275" y="170" width="3" height="3"/><rect x="287" y="170" width="3" height="3"/><rect x="275" y="173" width="3" height="3"/><rect x="287" y="173" width="3" height="3"/><rect x="275" y="176" width="12" height="3"/><rect x="314" y="164" width="9" height="3"/><rect x="314" y="167" width="9" height="3"/><rect x="314" y="170" width="9" height="3"/><rect x="347" y="158" width="12" height="3"/><rect x="347" y="161" width="3" height="3"/><rect x="359" y="161" width="3" height="3"/><rect x="347" y="164" width="3" height="3"/><rect x="359" y="164" width="3" height="3"/><rect x="347" y="167" width="12" height="3"/><rect x="347" y="170" width="3" height="3"/><rect x="359" y="170" width="3" height="3"/><rect x="347" y="173" width="3" height="3"/><rect x="359" y="173" width="3" height="3"/><rect x="347" y="176" width="12" height="3"/><rect x="365" y="158" width="12" height="3"/><rect x="365" y="161" width="3" height="3"/><rect x="377" y="161" width="3" height="3"/><rect x="365" y="164" width="3" height="3"/><rect x="377" y="164" width="3" height="3"/><rect x="365" y="167" width="12" height="3"/><rect x="365" y="170" width="3" height="3"/><rect x="371" y="170" width="3" height="3"/><rect x="365" y="173" width="3" height="3"/><rect x="374" y="173" width="3" height="3"/><rect x="365" y="176" width="3" height="3"/><rect x="377" y="176" width="3" height="3"/><rect x="383" y="158" width="15" height="3"/><rect x="383" y="161" width="3" height="3"/><rect x="383" y="164" width="3" height="3"/><rect x="383" y="167" width="12" height="3"/><rect x="383" y="170" width="3" height="3"/><rect x="383" y="173" width="3" height="3"/><rect x="383" y="176" width="15" height="3"/><rect x="404" y="158" width="9" height="3"/><rect x="401" y="161" width="3" height="3"/><rect x="413" y="161" width="3" height="3"/><rect x="401" y="164" width="3" height="3"/><rect x="413" y="164" width="3" height="3"/><rect x="401" y="167" width="15" height="3"/><rect x="401" y="170" width="3" height="3"/><rect x="413" y="170" width="3" height="3"/><rect x="401" y="173" width="3" height="3"/><rect x="413" y="173" width="3" height="3"/><rect x="401" y="176" width="3" height="3"/><rect x="413" y="176" width="3" height="3"/><rect x="419" y="158" width="3" height="3"/><rect x="431" y="158" width="3" height="3"/><rect x="419" y="161" width="3" height="3"/><rect x="428" y="161" width="3" height="3"/><rect x="419" y="164" width="3" height="3"/><rect x="425" y="164" width="3" height="3"/><rect x="419" y="167" width="6" height="3"/><rect x="419" y="170" width="3" height="3"/><rect x="425" y="170" width="3" height="3"/><rect x="419" y="173" width="3" height="3"/><rect x="428" y="173" width="3" height="3"/><rect x="419" y="176" width="3" height="3"/><rect x="431" y="176" width="3" height="3"/><rect x="458" y="164" width="9" height="3"/><rect x="458" y="167" width="9" height="3"/><rect x="458" y="170" width="9" height="3"/><rect x="491" y="158" width="12" height="3"/><rect x="491" y="161" width="3" height="3"/><rect x="503" y="161" width="3" height="3"/><rect x="491" y="164" width="3" height="3"/><rect x="503" y="164" width="3" height="3"/><rect x="491" y="167" width="12" height="3"/><rect x="491" y="170" width="3" height="3"/><rect x="497" y="170" width="3" height="3"/><rect x="491" y="173" width="3" height="3"/><rect x="500" y="173" width="3" height="3"/><rect x="491" y="176" width="3" height="3"/><rect x="503" y="176" width="3" height="3"/><rect x="509" y="158" width="15" height="3"/><rect x="509" y="161" width="3" height="3"/><rect x="509" y="164" width="3" height="3"/><rect x="509" y="167" width="12" height="3"/><rect x="509" y="170" width="3" height="3"/><rect x="509" y="173" width="3" height="3"/><rect x="509" y="176" width="15" height="3"/><rect x="527" y="158" width="12" height="3"/><rect x="527" y="161" width="3" height="3"/><rect x="539" y="161" width="3" height="3"/><rect x="527" y="164" width="3" height="3"/><rect x="539" y="164" width="3" height="3"/><rect x="527" y="167" width="12" height="3"/><rect x="527" y="170" width="3" height="3"/><rect x="527" y="173" width="3" height="3"/><rect x="527" y="176" width="3" height="3"/><rect x="545" y="158" width="15" height="3"/><rect x="545" y="161" width="3" height="3"/><rect x="545" y="164" width="3" height="3"/><rect x="545" y="167" width="12" height="3"/><rect x="545" y="170" width="3" height="3"/><rect x="545" y="173" width="3" height="3"/><rect x="545" y="176" width="15" height="3"/><rect x="566" y="158" width="9" height="3"/><rect x="563" y="161" width="3" height="3"/><rect x="575" y="161" width="3" height="3"/><rect x="563" y="164" width="3" height="3"/><rect x="575" y="164" width="3" height="3"/><rect x="563" y="167" width="15" height="3"/><rect x="563" y="170" width="3" height="3"/><rect x="575" y="170" width="3" height="3"/><rect x="563" y="173" width="3" height="3"/><rect x="575" y="173" width="3" height="3"/><rect x="563" y="176" width="3" height="3"/><rect x="575" y="176" width="3" height="3"/><rect x="581" y="158" width="15" height="3"/><rect x="587" y="161" width="3" height="3"/><rect x="587" y="164" width="3" height="3"/><rect x="587" y="167" width="3" height="3"/><rect x="587" y="170" width="3" height="3"/><rect x="587" y="173" width="3" height="3"/><rect x="587" y="176" width="3" height="3"/></g><rect class="cur" x="602" y="158" width="9" height="21" fill="#ff79c6"/></svg>